<svg width="24" height="25" viewBox="0 0 24 25" fill="none" xmlns="http://www.w3.org/2000/svg">
<path d="M21.7959 20.7041L17.3437 16.25C18.6787 14.5104 19.3019 12.3282 19.087 10.1461C18.8722 7.96389 17.8353 5.94515 16.1867 4.49936C14.5382 3.05356 12.4014 2.28898 10.2098 2.3607C8.01829 2.43243 5.93607 3.33509 4.38558 4.88558C2.83509 6.43607 1.93243 8.51829 1.8607 10.7098C1.78898 12.9014 2.55356 15.0382 3.99936 16.6867C5.44515 18.3353 7.46389 19.3722 9.64606 19.587C11.8282 19.8019 14.0104 19.1787 15.75 17.8437L20.2059 22.3006C20.3106 22.4053 20.4348 22.4883 20.5715 22.5449C20.7083 22.6015 20.8548 22.6307 21.0028 22.6307C21.1508 22.6307 21.2973 22.6015 21.4341 22.5449C21.5708 22.4883 21.695 22.4053 21.7997 22.3006C21.9043 22.196 21.9873 22.0717 22.044 21.935C22.1006 21.7983 22.1298 21.6517 22.1298 21.5037C22.1298 21.3557 22.1006 21.2092 22.044 21.0725C21.9873 20.9357 21.9043 20.8115 21.7997 20.7069L21.7959 20.7041ZM4.12499 11C4.12499 9.73914 4.49888 8.5066 5.19938 7.45823C5.89987 6.40987 6.89551 5.59277 8.06039 5.11026C9.22527 4.62775 10.5071 4.50151 11.7437 4.74749C12.9803 4.99347 14.1162 5.60063 15.0078 6.49219C15.8994 7.38375 16.5065 8.51966 16.7525 9.75629C16.9985 10.9929 16.8722 12.2747 16.3897 13.4396C15.9072 14.6045 15.0901 15.6001 14.0418 16.3006C12.9934 17.0011 11.7608 17.375 10.5 17.375C8.80977 17.3733 7.18927 16.701 5.99411 15.5059C4.79894 14.3107 4.12673 12.6902 4.12499 11Z" fill="black" fill-opacity="0.4"/>
</svg>
