<svg width="16" height="17" viewBox="0 0 16 17" fill="none" xmlns="http://www.w3.org/2000/svg">
<path d="M13.5306 7.03061L8.5306 12.0306C8.46092 12.1005 8.37813 12.156 8.28696 12.1939C8.1958 12.2317 8.09806 12.2512 7.99935 12.2512C7.90064 12.2512 7.8029 12.2317 7.71173 12.1939C7.62057 12.156 7.53778 12.1005 7.4681 12.0306L2.4681 7.03061C2.3272 6.88972 2.24805 6.69862 2.24805 6.49936C2.24805 6.30011 2.3272 6.10901 2.4681 5.96811C2.60899 5.82722 2.80009 5.74806 2.99935 5.74806C3.19861 5.74806 3.3897 5.82722 3.5306 5.96811L7.99997 10.4375L12.4693 5.96749C12.6102 5.82659 12.8013 5.74744 13.0006 5.74744C13.1999 5.74744 13.391 5.82659 13.5318 5.96749C13.6727 6.10838 13.7519 6.29948 13.7519 6.49874C13.7519 6.698 13.6727 6.88909 13.5318 7.02999L13.5306 7.03061Z" fill="black"/>
</svg>
